<svg xmlns="http://www.w3.org/2000/svg" width="396" height="239" viewBox="0 0 396 239">
<text x="20" y="66" font-family="sans-serif" font-size="16" fill="#000000" text-anchor="middle" dominant-baseline="central">I</text>
<text x="20" y="156" font-family="sans-serif" font-size="16" fill="#000000" text-anchor="middle" dominant-baseline="central">II</text>
<line x1="208" y1="66" x2="228" y2="66" stroke="#000000" stroke-width="2"/>
<line x1="218" y1="66" x2="218" y2="116" stroke="#000000" stroke-width="2"/>
<line x1="176" y1="116" x2="260" y2="116" stroke="#000000" stroke-width="2"/>
<line x1="176" y1="116" x2="176" y2="138" stroke="#000000" stroke-width="2"/>
<line x1="260" y1="116" x2="260" y2="138" stroke="#000000" stroke-width="2"/>
<line x1="106" y1="26" x2="190" y2="26" stroke="#000000" stroke-width="2"/>
<line x1="148" y1="4" x2="148" y2="26" stroke="#000000" stroke-width="2"/>
<line x1="106" y1="26" x2="106" y2="48" stroke="#000000" stroke-width="2"/>
<line x1="190" y1="26" x2="190" y2="48" stroke="#000000" stroke-width="2"/>
<line x1="246" y1="26" x2="330" y2="26" stroke="#000000" stroke-width="2"/>
<line x1="288" y1="4" x2="288" y2="26" stroke="#000000" stroke-width="2"/>
<line x1="246" y1="26" x2="246" y2="48" stroke="#000000" stroke-width="2"/>
<line x1="330" y1="26" x2="330" y2="48" stroke="#000000" stroke-width="2"/>
<circle cx="106" cy="66" r="18" fill="#ffffff" stroke="#000000" stroke-width="2"/>
<text x="106" y="95.5" font-family="sans-serif" font-size="11" fill="#000000" text-anchor="middle" dominant-baseline="central">I-1</text>
<rect x="172" y="48" width="36" height="36" fill="#ffffff" stroke="#000000" stroke-width="2"/>
<text x="190" y="95.5" font-family="sans-serif" font-size="11" fill="#000000" text-anchor="middle" dominant-baseline="central">I-2</text>
<circle cx="246" cy="66" r="18" fill="#ffffff" stroke="#000000" stroke-width="2"/>
<text x="246" y="95.5" font-family="sans-serif" font-size="11" fill="#000000" text-anchor="middle" dominant-baseline="central">I-3</text>
<rect x="312" y="48" width="36" height="36" fill="#ffffff" stroke="#000000" stroke-width="2"/>
<text x="330" y="95.5" font-family="sans-serif" font-size="11" fill="#000000" text-anchor="middle" dominant-baseline="central">I-4</text>
<rect x="158" y="138" width="36" height="36" fill="#ffffff" stroke="#000000" stroke-width="2"/>
<text x="176" y="185.5" font-family="sans-serif" font-size="11" fill="#000000" text-anchor="middle" dominant-baseline="central">II-1</text>
<circle cx="260" cy="156" r="18" fill="#000000" stroke="#000000" stroke-width="2"/>
<text x="260" y="185.5" font-family="sans-serif" font-size="11" fill="#000000" text-anchor="middle" dominant-baseline="central">II-2</text>
</svg>
